<svg xmlns="http://www.w3.org/2000/svg" width="1600" height="900" viewBox="0 0 1600 900">
  <defs>
    <linearGradient id="bg" x1="0" y1="0" x2="1" y2="1"><stop offset="0" stop-color="#05070F"/><stop offset="0.45" stop-color="#07131C"/><stop offset="1" stop-color="#062E31"/></linearGradient>
    <radialGradient id="glowA" cx="18%" cy="12%" r="58%"><stop offset="0" stop-color="#24205F" stop-opacity="0.7"/><stop offset="1" stop-color="#000" stop-opacity="0"/></radialGradient>
    <radialGradient id="glowB" cx="84%" cy="22%" r="56%"><stop offset="0" stop-color="#0C6D62" stop-opacity="0.55"/><stop offset="1" stop-color="#000" stop-opacity="0"/></radialGradient>
    <filter id="softShadow"><feDropShadow dx="0" dy="24" stdDeviation="30" flood-color="#000" flood-opacity="0.55"/></filter>
    <filter id="mintGlow"><feDropShadow dx="0" dy="0" stdDeviation="9" flood-color="#42FFC2" flood-opacity="0.55"/></filter>
    <style>
      .sans{font-family:Inter, SF Pro Display, Helvetica Neue, Arial, sans-serif}.mono{font-family:SFMono-Regular, Menlo, Consolas, monospace}.white{fill:#F2FFF8}.muted{fill:#AFC2CA}.muted2{fill:#8298A5}.mint{fill:#42FFC2}.cyan{fill:#42DFFF}.gold{fill:#FFD866}.tiny{font-size:18px;font-weight:700;letter-spacing:.08em}.title{font-size:90px;font-weight:520;letter-spacing:-2px}.sub{font-size:38px;font-weight:750}.body{font-size:28px;font-weight:650}.label{font-size:18px;font-weight:800;letter-spacing:.08em}.check{font-size:20px;font-weight:760}.panel{fill:#061018;stroke:#0E5B58;stroke-width:2}.inner{fill:none;stroke:#1C6B65;stroke-opacity:.55;stroke-width:1.5}.card{fill:#050D13;stroke:#17333B;stroke-width:2}.pill{fill:#0B332C;stroke:#168B6B;stroke-width:2}.goldpill{fill:#3A2A06;stroke:#7D6418;stroke-width:2}
    </style>
  </defs>
  <rect width="1600" height="900" fill="url(#bg)"/><rect width="1600" height="900" fill="url(#glowA)"/><rect width="1600" height="900" fill="url(#glowB)"/>
  <path d="M100 760 C420 600, 690 910, 1040 690 S1400 650, 1550 390" fill="none" stroke="#42DFFF" stroke-opacity="0.06" stroke-width="70"/>
  <rect x="90" y="74" width="1420" height="752" rx="50" class="panel" filter="url(#softShadow)"/><rect x="116" y="100" width="1368" height="700" rx="38" class="inner"/>
  <g transform="translate(164,150)">
    <rect x="0" y="0" width="230" height="50" rx="25" class="pill"/><circle cx="28" cy="25" r="7" fill="#42FFC2" filter="url(#mintGlow)"/><text x="48" y="32" class="sans tiny mint">CREATOR SKILL</text>
    <text x="0" y="135" class="sans title white">Hosted Game</text><text x="0" y="225" class="sans title white">Workflow</text>
    <text x="0" y="295" class="sans sub cyan">GitHub + fast deploys</text><text x="0" y="350" class="sans body muted">for Grotto game clients</text>
    <rect x="0" y="405" width="620" height="96" rx="26" fill="#02080D" stroke="#152631"/>
    <text x="30" y="445" class="mono" font-size="20" font-weight="700" fill="#35FFC2">wrapper/index.html → iframe</text><text x="30" y="477" class="mono" font-size="20" font-weight="700" fill="#42DFFF">Railway / Vercel client</text>
    <rect x="0" y="546" width="210" height="58" rx="29" fill="#42F5B4"/><text x="54" y="583" class="sans" font-size="22" font-weight="750" fill="#03120F">GET SKILL</text><text x="240" y="583" class="sans" font-size="23" font-weight="700" fill="#F2FFF8">enterthegrotto.xyz/skills</text>
  </g>
  <g transform="translate(890,160)">
    <rect width="520" height="580" rx="42" class="card"/><rect x="22" y="22" width="476" height="536" rx="30" fill="#07141A" stroke="#12313A"/>
    <text x="46" y="68" class="sans" font-size="26" font-weight="800" fill="#F2FFF8">Deploy pipeline</text><text x="46" y="96" class="sans" font-size="16" font-weight="700" fill="#8298A5">PRs, CI, hosted client, Grotto wrapper</text>
    <rect x="176" y="132" width="168" height="54" rx="20" class="pill"/><text x="221" y="166" class="sans label mint">GITHUB</text>
    <line x1="260" y1="186" x2="260" y2="228" stroke="#42FFC2" stroke-width="3"/>
    <circle cx="260" cy="300" r="98" fill="#06131A" stroke="#168B6B" stroke-width="3"/><circle cx="260" cy="300" r="70" fill="none" stroke="#2A8FA0" stroke-width="9" opacity=".8"/>
    <path d="M215 302 L246 333 L310 260" fill="none" stroke="#42FFC2" stroke-width="10" stroke-linecap="round" stroke-linejoin="round" filter="url(#mintGlow)"/>
    <line x1="162" y1="300" x2="66" y2="300" stroke="#FFD866" stroke-width="3"/><rect x="42" y="278" width="112" height="44" rx="22" class="goldpill"/><text x="76" y="306" class="sans label gold">CI</text>
    <line x1="358" y1="300" x2="456" y2="300" stroke="#42FFC2" stroke-width="3"/><rect x="360" y="278" width="134" height="44" rx="22" class="pill"/><text x="384" y="306" class="sans label mint">WRAPPER</text>
    <line x1="260" y1="398" x2="260" y2="450" stroke="#42DFFF" stroke-width="3"/><rect x="174" y="434" width="172" height="44" rx="22" fill="#082B35" stroke="#2A8FA0" stroke-width="2"/><text x="209" y="462" class="sans label cyan">GROTTO</text>
    <rect x="58" y="500" width="178" height="58" rx="20" fill="#08131F" stroke="#17333B"/><text x="88" y="537" class="sans" font-size="24" font-weight="800" fill="#F2FFF8">Railway</text><circle cx="206" cy="529" r="7" fill="#42F5B4"/>
    <rect x="278" y="500" width="184" height="58" rx="20" fill="#06152A" stroke="#17333B"/><text x="316" y="537" class="sans" font-size="24" font-weight="800" fill="#F2FFF8">Vercel</text><circle cx="432" cy="529" r="7" fill="#42F5B4"/>
  </g>
  <line x1="145" y1="770" x2="1455" y2="770" stroke="#24444B" stroke-opacity=".65"/><g class="sans check"><text x="164" y="812" class="mint">✓ Git history</text><text x="340" y="812" class="cyan">✓ PR tests</text><text x="500" y="812" class="gold">✓ auto deploys</text><text x="705" y="812" class="mint">✓ previews</text><text x="875" y="812" class="cyan">✓ wrapper bridge</text><text x="1090" y="812" class="gold">✓ quick rollback</text></g>
</svg>