<svg xmlns="http://www.w3.org/2000/svg" width="1600" height="900" viewBox="0 0 1600 900">
  <defs>
    <linearGradient id="bg" x1="0" y1="0" x2="1" y2="1"><stop offset="0" stop-color="#05070F"/><stop offset="0.45" stop-color="#07131C"/><stop offset="1" stop-color="#062E31"/></linearGradient>
    <radialGradient id="glowA" cx="18%" cy="12%" r="58%"><stop offset="0" stop-color="#24205F" stop-opacity="0.7"/><stop offset="1" stop-color="#000" stop-opacity="0"/></radialGradient>
    <radialGradient id="glowB" cx="84%" cy="22%" r="56%"><stop offset="0" stop-color="#0C6D62" stop-opacity="0.55"/><stop offset="1" stop-color="#000" stop-opacity="0"/></radialGradient>
    <filter id="softShadow"><feDropShadow dx="0" dy="24" stdDeviation="30" flood-color="#000" flood-opacity="0.55"/></filter>
    <filter id="mintGlow"><feDropShadow dx="0" dy="0" stdDeviation="9" flood-color="#42FFC2" flood-opacity="0.55"/></filter>
    <style>
      .sans{font-family:Inter, SF Pro Display, Helvetica Neue, Arial, sans-serif}.mono{font-family:SFMono-Regular, Menlo, Consolas, monospace}.white{fill:#F2FFF8}.muted{fill:#AFC2CA}.muted2{fill:#8298A5}.mint{fill:#42FFC2}.cyan{fill:#42DFFF}.gold{fill:#FFD866}.tiny{font-size:18px;font-weight:700;letter-spacing:.08em}.title{font-size:90px;font-weight:520;letter-spacing:-2px}.sub{font-size:38px;font-weight:750}.body{font-size:28px;font-weight:650}.label{font-size:18px;font-weight:800;letter-spacing:.08em}.check{font-size:20px;font-weight:760}.panel{fill:#061018;stroke:#0E5B58;stroke-width:2}.inner{fill:none;stroke:#1C6B65;stroke-opacity:.55;stroke-width:1.5}.card{fill:#050D13;stroke:#17333B;stroke-width:2}.pill{fill:#0B332C;stroke:#168B6B;stroke-width:2}.goldpill{fill:#3A2A06;stroke:#7D6418;stroke-width:2}
    </style>
  </defs>
  <rect width="1600" height="900" fill="url(#bg)"/><rect width="1600" height="900" fill="url(#glowA)"/><rect width="1600" height="900" fill="url(#glowB)"/>
  <path d="M100 760 C420 600, 690 910, 1040 690 S1400 650, 1550 390" fill="none" stroke="#42DFFF" stroke-opacity="0.06" stroke-width="70"/>
  <rect x="90" y="74" width="1420" height="752" rx="50" class="panel" filter="url(#softShadow)"/><rect x="116" y="100" width="1368" height="700" rx="38" class="inner"/>
  <g transform="translate(164,150)">
    <rect x="0" y="0" width="230" height="50" rx="25" class="pill"/><circle cx="28" cy="25" r="7" fill="#42FFC2" filter="url(#mintGlow)"/><text x="48" y="32" class="sans tiny mint">CREATOR SKILL</text>
    <text x="0" y="135" class="sans title white">Token-Gated</text><text x="0" y="225" class="sans title white">Inventory</text>
    <text x="0" y="295" class="sans sub cyan">NFT gates + owned assets</text><text x="0" y="350" class="sans body muted">for skins, passes, rewards</text>
    <rect x="0" y="405" width="620" height="96" rx="26" fill="#02080D" stroke="#152631"/>
    <text x="30" y="445" class="mono" font-size="20" font-weight="700" fill="#35FFC2">GET /api/inventory/:wallet</text><text x="30" y="477" class="mono" font-size="20" font-weight="700" fill="#42DFFF">?include_erc721=true</text>
    <rect x="0" y="546" width="210" height="58" rx="29" fill="#42F5B4"/><text x="54" y="583" class="sans" font-size="22" font-weight="750" fill="#03120F">GET SKILL</text><text x="240" y="583" class="sans" font-size="23" font-weight="700" fill="#F2FFF8">enterthegrotto.xyz/skills</text>
  </g>
  <g transform="translate(890,160)">
    <rect width="520" height="580" rx="42" class="card"/><rect x="22" y="22" width="476" height="536" rx="30" fill="#07141A" stroke="#12313A"/>
    <text x="46" y="68" class="sans" font-size="26" font-weight="800" fill="#F2FFF8">Ownership gate</text><text x="46" y="96" class="sans" font-size="16" font-weight="700" fill="#8298A5">runtime identity + indexed wallets</text>
    <line x1="260" y1="136" x2="260" y2="186" stroke="#42FFC2" stroke-width="3"/><rect x="190" y="116" width="140" height="42" rx="21" class="pill"/><text x="226" y="143" class="sans label mint">PLAYER</text>
    <circle cx="260" cy="286" r="118" fill="#06131A" stroke="#168B6B" stroke-width="3"/><circle cx="260" cy="286" r="84" fill="none" stroke="#2A8FA0" stroke-width="10" opacity=".8"/>
    <path d="M260 222 L315 254 L315 318 L260 350 L205 318 L205 254 Z" fill="none" stroke="#42FFC2" stroke-width="4"/><circle cx="260" cy="286" r="17" fill="#42FFC2" filter="url(#mintGlow)"/>
    <line x1="148" y1="286" x2="64" y2="286" stroke="#FFD866" stroke-width="3"/><rect x="38" y="264" width="102" height="44" rx="22" class="goldpill"/><text x="62" y="292" class="sans label gold">NFT</text>
    <line x1="372" y1="286" x2="462" y2="286" stroke="#42FFC2" stroke-width="3"/><rect x="368" y="264" width="126" height="44" rx="22" class="pill"/><text x="393" y="292" class="sans label mint">ASSET</text>
    <line x1="260" y1="404" x2="260" y2="455" stroke="#42DFFF" stroke-width="3"/><rect x="191" y="438" width="138" height="44" rx="22" fill="#082B35" stroke="#2A8FA0" stroke-width="2"/><text x="223" y="466" class="sans label cyan">SKIN</text>
    <rect x="58" y="500" width="178" height="58" rx="20" fill="#08131F" stroke="#17333B"/><text x="86" y="537" class="sans" font-size="24" font-weight="800" fill="#F2FFF8">Indexer</text><circle cx="206" cy="529" r="7" fill="#42F5B4"/>
    <rect x="278" y="500" width="184" height="58" rx="20" fill="#06231E" stroke="#17333B"/><text x="306" y="537" class="sans" font-size="24" font-weight="800" fill="#F2FFF8">Runtime</text><circle cx="432" cy="529" r="7" fill="#42F5B4"/>
  </g>
  <line x1="145" y1="770" x2="1455" y2="770" stroke="#24444B" stroke-opacity=".65"/><g class="sans check"><text x="164" y="812" class="mint">✓ associated wallets</text><text x="395" y="812" class="cyan">✓ NFTs + ERC1155</text><text x="620" y="812" class="gold">✓ gated skins</text><text x="805" y="812" class="mint">✓ game passes</text><text x="1000" y="812" class="cyan">✓ asset checks</text><text x="1200" y="812" class="gold">✓ server entitlements</text></g>
</svg>